<svg width="50" height="50" viewBox="0 0 50 50" xmlns="http://www.w3.org/2000/svg">
  <path d="M0 46.5455V0H19.2273C22.7121 0 25.7197 0.628788 28.25 1.88636C30.7955 3.12879 32.7576 4.91667 34.1364 7.25C35.5152 9.56818 36.2045 12.3182 36.2045 15.5C36.2045 18.7273 35.5 21.4697 34.0909 23.7273C32.6818 25.9697 30.6818 27.6818 28.0909 28.8636L16.7955 30.6136H11.25V21.75H16.7955C18.4924 21.75 19.9091 21.5303 21.0455 21.0909C22.197 20.6364 23.0682 19.9545 23.6591 19.0455C24.25 18.1212 24.5455 16.9394 24.5455 15.5C24.5455 14.0606 24.25 12.8712 23.6591 11.9318C23.0682 10.9773 22.197 10.2652 21.0455 9.79546C19.8939 9.31061 18.4773 9.06818 16.7955 9.06818H11.25V46.5455H0ZM28.0909 28.8636L37.7955 46.5455H25.5227L16.7955 30.6136L28.0909 28.8636Z"></path>
</svg>